# xmcd
#
# Track frame offsets: 
#        150
#        22590
#        39920
#        64210
#        83186
#        108633
#        126717
#        143659
#        161570
#        182110
#        199793
#
# Disc length: 3013 seconds
#
# Revision: 1
# Processed by: cddbd v1.5.2PL0 Copyright (c) Steve Scherf et al.
# Submitted via: ExactAudioCopy v1.0b3
#
DISCID=940bc30b
DTITLE=Mike Harrison - Hamburg Blues Band - Touch
DYEAR=2001
DGENRE=Blues
TTITLE0=Hold back
TTITLE1=Movin' on
TTITLE2=Try me again
TTITLE3=Make me smile
TTITLE4=Security
TTITLE5=There's a road
TTITLE6=King of hearts
TTITLE7=Perfect day
TTITLE8=Hittin' the spot
TTITLE9=True lies
TTITLE10=Waiting for the wind
EXTD=
EXTT0=
EXTT1=
EXTT2=
EXTT3=
EXTT4=
EXTT5=
EXTT6=
EXTT7=
EXTT8=
EXTT9=
EXTT10=
PLAYORDER=
